#!OML:ASF Y:\EmotionMaleHayes\Project 1\Capture day 1\Session 1\Male1.ASF
:FULLY-SPECIFIED
:DEGREES
850
root 39.9358 16.9422 -2.41636 198.159 105.802 205.042
lowerback 7.88145 2.37479 -10.0516
upperback 9.81053 3.57874 -4.93461
thorax 5.77519 1.58191 0.306534
lowerneck -22.2706 1.13866 1.37643
upperneck 20.4169 3.09421 -7.28821
head 10.3747 0.672789 -2.35356
rclavicle 2.26615e-014 1.74931e-014
rhumerus -23.8284 15.3021 -93.7664
rradius 31.1557
rwrist 0.55722
rhand -10.39 -32.8589
rfingers 7.12502
rthumb 15.6081 -62.2492
lclavicle 2.26615e-014 1.74931e-014
lhumerus -12.8116 -16.9787 82.3606
lradius 21.9427
lwrist -13.2226
lhand -15.5518 -26.0127
lfingers 7.12502
lthumb 10.6325 3.69834
rfemur -9.63056 0.199882 5.41376
rtibia 57.3743
rfoot -6.3321 -5.6422
rtoes 17.0948
lfemur 2.3652 4.26356 -25.7423
ltibia 11.1027
lfoot -9.36496 5.64411
ltoes -8.74596
851
root 40.0039 16.951 -2.42449 197.951 105.56 204.661
lowerback 7.76468 2.26573 -9.89437
upperback 9.78418 3.44606 -4.90005
thorax 5.82178 1.52008 0.267701
lowerneck -22.3836 1.1603 1.19036
upperneck 20.8129 3.08613 -6.78648
head 10.5248 0.705217 -2.14993
rclavicle 0 -2.8625e-014
rhumerus -23.9358 14.764 -93.6939
rradius 31.2999
rwrist 0.167508
rhand -10.8894 -32.9513
rfingers 7.12502
rthumb 15.127 -62.3785
lclavicle 0 -2.8625e-014
lhumerus -12.3472 -16.6296 82.1951
lradius 21.6899
lwrist -13.9898
lhand -15.8198 -26.1317
lfingers 7.12502
lthumb 10.374 3.59237
rfemur -10.3913 -0.0462897 5.61721
rtibia 56.5839
rfoot -7.09952 -5.56906
rtoes 14.0698
lfemur 2.52662 4.23815 -25.6394
ltibia 10.9475
lfoot -9.47432 5.4091
ltoes -8.50164
852
root 40.078 16.9499 -2.41372 196.392 105.523 203.234
lowerback 7.79588 2.28954 -9.76615
upperback 9.86251 3.47676 -4.74641
thorax 5.88051 1.5323 0.358165
lowerneck -21.955 1.2243 1.40941
upperneck 20.5917 3.11989 -6.9271
head 10.3725 0.734143 -2.22684
rclavicle 7.55382e-015 1.11319e-014
rhumerus -24.0078 14.5372 -93.6267
rradius 31.3771
rwrist -0.293835
rhand -11.0763 -32.9833
rfingers 7.12502
rthumb 14.947 -62.4239
lclavicle 7.55382e-015 1.11319e-014
lhumerus -11.9323 -16.3971 82.1018
lradius 21.5192
lwrist -14.1059
lhand -16.032 -26.1498
lfingers 7.12502
lthumb 10.1693 3.58441
rfemur -10.755 0.101466 6.28032
rtibia 56.1361
rfoot -8.45444 -5.33644
rtoes 14.0072
lfemur 3.18394 4.32693 -25.0408
ltibia 10.6205
lfoot -9.60054 5.3931
ltoes -8.24618
853
root 40.1426 16.9516 -2.41448 197.326 105.568 204.271
lowerback 7.89003 2.29767 -10.1335
upperback 9.89072 3.47539 -4.80423
thorax 5.85575 1.51476 0.492818
lowerneck -21.862 1.22174 1.45426
upperneck 20.6826 3.08932 -6.85433
head 10.3853 0.733075 -2.21394
rclavicle -1.59028e-015 4.77083e-015
rhumerus -24.0768 14.3233 -93.5819
rradius 31.5122
rwrist -0.847874
rhand -11.0678 -33.2559
rfingers 7.12502
rthumb 14.9552 -62.6959
lclavicle -1.59028e-015 4.77083e-015
lhumerus -11.4798 -16.1237 81.9956
lradius 21.3664
lwrist -14.3295
lhand -15.9842 -26.1137
lfingers 7.12502
lthumb 10.2154 3.61829
rfemur -11.2109 0.268437 5.93391
rtibia 55.0197
rfoot -9.13285 -4.84577
rtoes 17.9585
lfemur 3.59767 4.43441 -25.3709
ltibia 10.4236
lfoot -9.6672 5.29759
ltoes -8.17763
854
root 40.2023 16.9563 -2.41131 199.043 105.688 206.027
lowerback 7.89992 2.31997 -10.7711
upperback 9.95172 3.5085 -4.92323
thorax 5.91211 1.49822 0.711557
lowerneck -22.2677 1.26439 1.50392
upperneck 21.114 3.10425 -6.63318
head 10.6136 0.755157 -2.14839
rclavicle -3.45885e-014 1.59028e-015
rhumerus -23.9623 14.1534 -93.5584
rradius 31.5477
rwrist -1.4233
rhand -11.237 -33.4328
rfingers 7.12502
rthumb 14.7922 -62.8849
lclavicle -3.45885e-014 1.59028e-015
lhumerus -10.8539 -15.8148 81.8104
lradius 21.1663
lwrist -14.8445
lhand -16.2233 -26.1782
lfingers 7.12502
lthumb 9.98474 3.56498
rfemur -11.8829 0.189385 5.38539
rtibia 54.3313
rfoot -9.63636 -4.61515
rtoes 17.2623
lfemur 3.82423 4.57301 -25.9243
ltibia 10.3241
lfoot -9.73113 5.16786
ltoes -8.75856
855
root 40.2696 16.9618 -2.42898 200.557 105.594 207.522
lowerback 8.01805 2.2858 -10.915
upperback 9.86424 3.43719 -5.03204
thorax 5.76003 1.46807 0.671497
lowerneck -22.2888 1.27291 1.39891
upperneck 21.5305 3.11152 -6.35379
head 10.7628 0.778605 -2.03458
rclavicle -1.78906e-014 -9.54166e-015
rhumerus -24.2102 13.8167 -93.4911
rradius 31.6542
rwrist -1.80363
rhand -11.326 -33.6382
rfingers 7.12502
rthumb 14.7064 -63.0965
lclavicle -1.78906e-014 -9.54166e-015
lhumerus -10.5538 -15.9321 81.8298
lradius 21.0573
lwrist -15.1057
lhand -16.6925 -26.1749
lfingers 7.12502
lthumb 9.53206 3.58951
rfemur -12.3865 -0.426993 4.81612
rtibia 53.3717
rfoot -9.90956 -4.16169
rtoes 14.0278
lfemur 4.07253 4.56541 -26.5515
ltibia 10.2148
lfoot -9.82376 4.93963
ltoes -8.84812
856
root 40.3697 16.9701 -2.44398 201.963 105.379 208.899
lowerback 7.57354 2.15054 -10.8959
upperback 9.99314 3.36018 -5.15178
thorax 6.17013 1.41986 0.557506
lowerneck -22.3295 1.13538 1.31967
upperneck 21.6192 2.871 -6.06176
head 10.7842 0.695889 -1.95461
rclavicle 0 2.8625e-014
rhumerus -24.2513 13.4252 -93.4332
rradius 31.8292
rwrist -2.01643
rhand -11.3545 -33.865
rfingers 7.12502
rthumb 14.679 -63.3254
lclavicle 0 2.8625e-014
lhumerus -10.0072 -15.9648 81.7225
lradius 20.9864
lwrist -15.3035
lhand -16.8321 -25.9086
lfingers 7.12502
lthumb 9.39739 3.86195
rfemur -12.4076 -1.1467 4.1915
rtibia 51.9898
rfoot -10.1142 -3.39845
rtoes 11.0817
lfemur 4.62729 4.64352 -27.1799
ltibia 9.8609
lfoot -9.98483 4.46135
ltoes -7.92308
